<?xml version="1.0" encoding="UTF-8"?>
<svg version="1.1" xmlns="http://www.w3.org/2000/svg" width="1200" height="1200">
<path d="M0 0 C0.90363281 0.61230469 1.80726563 1.22460938 2.73828125 1.85546875 C36.23557824 25.36659616 56.77018843 57.64531314 67 97 C67 97.66 67 98.32 67 99 C63.01036433 97.67012144 61.79373246 95.09995255 59.5625 91.75 C39.34533829 62.48257012 9.69178302 44.02508842 -24 34 C-23.04480469 34.49628906 -22.08960938 34.99257812 -21.10546875 35.50390625 C-9.26184535 41.70485282 1.76098803 48.33248195 12 57 C12.8353125 57.69996094 13.670625 58.39992188 14.53125 59.12109375 C41.94366279 82.85313631 55.67434399 116.64302553 59 152 C56 151 56 151 54.2734375 147.82421875 C53.63518048 146.44782415 53.0027305 145.06872718 52.375 143.6875 C46.75903462 131.93181402 38.9164288 122.46489103 30 113 C29.33871094 112.26265625 28.67742187 111.5253125 27.99609375 110.765625 C7.25355943 88.56678372 -25.83048877 75.25811971 -55.70996094 73.87451172 C-92.87259898 72.64563751 -127.92492048 83.36267498 -155.6640625 108.8125 C-183.71575266 135.31903743 -196.82379059 169.79847151 -197.95458984 207.88769531 C-198.0127329 210.59228525 -198.02188568 213.2949294 -198 216 C-198.66 216 -199.32 216 -200 216 C-203.79594788 207.50803412 -206.67833137 199.11691246 -208.8125 190.0625 C-209.12223755 188.75019409 -209.12223755 188.75019409 -209.43823242 187.41137695 C-211.3970596 178.77229916 -212.17064401 170.33924336 -212.5625 161.5 C-212.60568359 160.5821875 -212.64886719 159.664375 -212.69335938 158.71875 C-212.79833456 156.47927939 -212.90049248 154.23971908 -213 152 C-214.63943377 161.71149775 -215.32117304 171.02134643 -215.25 180.875 C-215.24419922 182.83203857 -215.24419922 182.83203857 -215.23828125 184.82861328 C-215.15587729 194.02008862 -214.61974916 202.94675918 -213 212 C-218.38749973 210.20416676 -220.41872271 204.11426362 -222.90625 199.26025391 C-241.35193591 161.14191459 -243.94839275 117.4165804 -230.25 77.4375 C-222.43821934 55.6734344 -209.58239215 35.16955251 -193 19 C-192.34 19 -191.68 19 -191 19 C-191 18.34 -191 17.68 -191 17 C-187.50791301 13.79511269 -183.71533056 10.94110047 -180 8 C-179.29488281 7.40703125 -178.58976563 6.8140625 -177.86328125 6.203125 C-157.59572705 -10.52059359 -130.93014824 -20.76343578 -105 -24 C-103.77603516 -24.16628906 -103.77603516 -24.16628906 -102.52734375 -24.3359375 C-67.13925173 -28.38341634 -29.46675437 -20.28125577 0 0 Z M-212 143 C-211 147 -211 147 -211 147 Z " fill="#C70F17" transform="translate(767,203)"/>
<path d="M0 0 C0.74476089 0.00141495 1.48952179 0.0028299 2.2568512 0.00428772 C4.61007898 0.00983636 6.96320775 0.02237892 9.31640625 0.03515625 C10.92252466 0.0401779 12.52864457 0.04473964 14.13476562 0.04882812 C18.04951668 0.0597889 21.96419474 0.07701741 25.87890625 0.09765625 C25.54890625 1.08765625 25.21890625 2.07765625 24.87890625 3.09765625 C22.3515625 3.984375 22.3515625 3.984375 18.94140625 4.78515625 C-2.60818679 10.59284799 -21.66238029 22.22236915 -38.12109375 37.09765625 C-38.98992187 37.82339844 -39.85875 38.54914063 -40.75390625 39.296875 C-53.51910672 50.1212848 -63.886164 65.08517703 -71.12109375 80.09765625 C-70.47785156 79.31003906 -69.83460938 78.52242188 -69.171875 77.7109375 C-58.40678347 64.66950925 -47.28954484 53.41273167 -33.12109375 44.09765625 C-32.31671875 43.54722656 -31.51234375 42.99679688 -30.68359375 42.4296875 C-1.15597603 23.30850449 36.01675246 19.42161529 69.87890625 26.09765625 C71.21448904 26.42185913 72.54855692 26.75260619 73.87890625 27.09765625 C73.87890625 27.75765625 73.87890625 28.41765625 73.87890625 29.09765625 C72.64398437 29.31679687 71.4090625 29.5359375 70.13671875 29.76171875 C33.77718422 36.45543344 1.79113004 53.47645724 -20.09765625 84.03125 C-31.67842501 101.58125671 -39.40246089 120.39391653 -43.12109375 141.09765625 C-43.30800781 142.12761719 -43.49492187 143.15757812 -43.6875 144.21875 C-45.28550559 158.51442161 -45.13264559 174.00359362 -42.12109375 188.09765625 C-41.86457031 189.34933594 -41.60804688 190.60101563 -41.34375 191.890625 C-34.91530032 221.21369296 -17.76075058 249.082974 6.44140625 267.03515625 C7.13540527 267.55094238 7.8294043 268.06672852 8.54443359 268.59814453 C22.96102135 279.13220626 38.70224768 286.24710483 55.87890625 291.09765625 C55.87890625 291.75765625 55.87890625 292.41765625 55.87890625 293.09765625 C37.74593914 296.04514765 19.5942674 293.24969402 1.87890625 289.09765625 C16.62980276 294.91951784 31.09274451 299.29048622 46.87890625 301.09765625 C46.54890625 302.08765625 46.21890625 303.07765625 45.87890625 304.09765625 C43.40051943 304.58116975 40.92130847 305.05952826 38.44140625 305.53515625 C37.75369141 305.66986328 37.06597656 305.80457031 36.35742188 305.94335938 C-3.88242485 313.61700456 -45.35725229 304.0503017 -79.21582031 281.41894531 C-83.7715766 278.25957153 -87.98276052 274.77911749 -92.12109375 271.09765625 C-92.95769531 270.3809375 -93.79429687 269.66421875 -94.65625 268.92578125 C-126.25634092 241.3794887 -142.98079852 202.5087315 -145.98046875 161.20361328 C-148.63604726 121.43448098 -133.77450177 82.2765289 -107.8671875 52.5078125 C-105.6470788 50.00972064 -103.39515328 47.54664343 -101.12109375 45.09765625 C-100.58226562 44.5046875 -100.0434375 43.91171875 -99.48828125 43.30078125 C-75.0079409 17.46725625 -35.6659086 -0.26015725 0 0 Z M-74.12109375 83.09765625 C-73.12109375 85.09765625 -73.12109375 85.09765625 -73.12109375 85.09765625 Z " fill="#EB0015" transform="translate(479.12109375,193.90234375)"/>
<path d="M0 0 C0.6899707 -0.00100708 1.37994141 -0.00201416 2.09082031 -0.00305176 C13.03928522 0.00774429 23.44707557 0.72927417 34.125 3.25 C36.04892578 3.68505859 36.04892578 3.68505859 38.01171875 4.12890625 C65.20200943 10.80771352 89.11885751 24.90688529 109.125 44.25 C109.95773437 45.04277344 110.79046875 45.83554687 111.6484375 46.65234375 C115.72630677 50.60859236 115.72630677 50.60859236 117.125 52.25 C117.125 52.91 117.125 53.57 117.125 54.25 C117.785 54.25 118.445 54.25 119.125 54.25 C120.31079102 55.55664062 120.31079102 55.55664062 121.62890625 57.40625 C122.1177832 58.09050049 122.60666016 58.77475098 123.11035156 59.47973633 C123.63081055 60.22892334 124.15126953 60.97811035 124.6875 61.75 C125.2247168 62.52174561 125.76193359 63.29349121 126.31542969 64.08862305 C150.30256908 99.03835604 160.44771421 140.78566104 152.66845703 182.71044922 C146.45138245 214.10637722 131.64470149 241.606883 109.125 264.25 C108.64836914 264.73065918 108.17173828 265.21131836 107.68066406 265.70654297 C98.95594177 274.38036605 87.96528375 284.21198415 76.125 288.25 C77.55988999 285.0744238 79.42023337 282.29030374 81.39941406 279.42993164 C97.26238362 256.43223373 109.48928778 228.66444664 109.125 200.25 C108.7846875 201.508125 108.444375 202.76625 108.09375 204.0625 C104.89621706 215.5061838 101.04559862 225.938631 95.125 236.25 C94.60897217 237.15008789 94.60897217 237.15008789 94.08251953 238.06835938 C88.46292545 247.67799625 81.60355551 256.03392538 74.125 264.25 C73.51011719 264.93707031 72.89523437 265.62414062 72.26171875 266.33203125 C60.88887968 278.38216099 44.50928833 289.12705324 29.125 295.25 C28.135 295.25 27.145 295.25 26.125 295.25 C27.37696881 291.49409357 29.04509767 290.67309319 32.125 288.25 C38.03718658 281.71107986 43.25595792 274.5890173 48.125 267.25 C48.85976563 266.18845703 48.85976563 266.18845703 49.609375 265.10546875 C67.06023728 238.31933337 72.38468572 201.84280107 66.67382812 170.75952148 C59.30988519 135.87324377 39.86228043 104.84620608 10.09814453 84.89111328 C-12.58550164 70.32525954 -37.35294748 62.80294119 -64.375 62.875 C-65.07443726 62.87487915 -65.77387451 62.8747583 -66.49450684 62.87463379 C-81.96150901 62.91254959 -96.20590847 65.15656686 -110.7578125 70.515625 C-112.875 71.25 -112.875 71.25 -114.875 71.25 C-113.6032345 67.43470351 -111.34733774 65.95554955 -108.25 63.625 C-107.67096924 63.18696045 -107.09193848 62.7489209 -106.49536133 62.29760742 C-92.6337614 52.01020761 -77.41032977 44.26965368 -60.875 39.25 C-79.42764411 41.62854412 -96.41556096 46.90348421 -112.91796875 55.74609375 C-115.875 57.25 -115.875 57.25 -117.875 57.25 C-116.38627609 51.9331289 -112.89564997 48.8127762 -109.0625 45.0625 C-108.38960937 44.39976074 -107.71671875 43.73702148 -107.0234375 43.05419922 C-78.28912379 15.19246707 -39.87525349 0.04034996 0 0 Z M110.125 190.25 C110.125 192.23 110.125 194.21 110.125 196.25 C110.455 196.25 110.785 196.25 111.125 196.25 C111.125 194.27 111.125 192.29 111.125 190.25 C110.795 190.25 110.465 190.25 110.125 190.25 Z " fill="#89428E" transform="translate(756.875,358.75)"/>
<path d="M0 0 C0.66 0 1.32 0 2 0 C1.855625 0.79277344 1.71125 1.58554687 1.5625 2.40234375 C-4.0686314 37.79244042 2.61478626 74.13377507 23.4921875 103.59765625 C44.63024401 132.57095079 74.45545048 152.39101384 110.09667969 158.35058594 C145.19173734 163.73385149 181.60658913 156.47728096 210.57421875 135.44921875 C214.85649586 132.24664597 218.99553166 129.02447198 222.74609375 125.19921875 C225 123 225 123 227 123 C227 122.34 227 121.68 227 121 C227.66 121 228.32 121 229 121 C229.25394531 120.42507813 229.50789063 119.85015625 229.76953125 119.2578125 C231.13923449 116.74451577 232.72943428 114.96001301 234.6875 112.875 C238.41869823 108.79039138 241.52790232 104.49573994 244.5546875 99.87109375 C245.03164063 99.25363281 245.50859375 98.63617187 246 98 C246.66 98 247.32 98 248 98 C245.24598927 111.1405655 240.37522631 123.72547407 235 136 C241.50808374 126.65035858 247.18890937 117.33906563 252 107 C252.99 107.33 253.98 107.66 255 108 C249.92321207 143.20027824 239.12625224 174.26856559 215 201 C213.76989401 202.4575411 212.54059641 203.91576526 211.3125 205.375 C207.83706201 209.30020055 204.0569138 212.68628554 200 216 C199.09894531 216.75023437 198.19789063 217.50046875 197.26953125 218.2734375 C178.51795647 233.34124283 156.54997309 243.97438719 133 249 C132.32807617 249.14808105 131.65615234 249.29616211 130.96386719 249.44873047 C110.08558185 253.89937918 87.82073858 253.58855126 67 249 C65.74960937 248.73316406 64.49921875 248.46632813 63.2109375 248.19140625 C25.11560262 239.01426455 -8.68062274 214.85265434 -30 182 C-30.65097656 180.99839844 -31.30195313 179.99679687 -31.97265625 178.96484375 C-52.3332345 145.7166907 -59.98176427 103.04547893 -51 65 C-48.37299382 54.44087526 -44.79464101 44.18901479 -41 34 C-40.34 34 -39.68 34 -39 34 C-38.98541748 34.65782471 -38.97083496 35.31564941 -38.95581055 35.9934082 C-37.91548164 78.26458165 -27.02205333 113.12145602 0 146 C-1.23522715 143.51054221 -2.49636764 141.03684954 -3.76953125 138.56640625 C-20.8786589 105.18601225 -26.60985482 68.28079632 -15 32 C-6.7453738 6.7453738 -6.7453738 6.7453738 0 0 Z " fill="#EF7D00" transform="translate(342,440)"/>
<path d="M0 0 C4.64107002 0.62717162 8.50136205 2.52009385 12.625 4.625 C13.33575684 4.9861792 14.04651367 5.3473584 14.77880859 5.71948242 C28.88812583 12.99115836 42.15190542 22.34604696 53 34 C54.2065625 35.175625 54.2065625 35.175625 55.4375 36.375 C85.45214856 67.12171316 98.61167055 106.58640789 98.21484375 149.046875 C97.49255951 181.93996826 85.29108932 213.30971648 65 239 C64.24847656 239.9796875 63.49695313 240.959375 62.72265625 241.96875 C58.6543037 247.20684587 58.6543037 247.20684587 57 249 C56.34 249 55.68 249 55 249 C55 249.66 55 250.32 55 251 C54.34 251 53.68 251 53 251 C52.67 251.99 52.34 252.98 52 254 C51.34 254 50.68 254 50 254 C50 254.66 50 255.32 50 256 C46.55767846 259.25966774 42.75328214 262.10812687 39 265 C38.46503906 265.41378906 37.93007813 265.82757812 37.37890625 266.25390625 C10.58285733 286.75256237 -21.98414952 297.46371472 -55.6875 297.3125 C-56.99678467 297.30758545 -58.30606934 297.3026709 -59.6550293 297.29760742 C-94.85034987 296.87471707 -127.0195167 283.97344838 -154.45996094 262.20361328 C-155.75851604 261.18873112 -157.09797425 260.22650696 -158.4453125 259.27734375 C-159.21488281 258.64505859 -159.21488281 258.64505859 -160 258 C-160 257.34 -160 256.68 -160 256 C-156.29291028 256.6541923 -152.73590793 257.64172314 -149.12988281 258.71411133 C-119.05106853 267.52997861 -88.14023665 267.51055302 -58 259 C-58.89493164 259.02094727 -59.78986328 259.04189453 -60.71191406 259.06347656 C-94.48381416 259.7484522 -94.48381416 259.7484522 -111 255 C-111.9902417 254.72712158 -111.9902417 254.72712158 -113.00048828 254.44873047 C-132.79698613 248.87582957 -151.24676487 238.91388742 -166.14453125 224.71484375 C-167.8970546 222.93537035 -167.8970546 222.93537035 -170 222 C-170 221.34 -170 220.68 -170 220 C-170.59296875 219.7421875 -171.1859375 219.484375 -171.796875 219.21875 C-174.17660965 217.90230105 -175.50978792 216.57419218 -177.25 214.5 C-177.77078125 213.8915625 -178.2915625 213.283125 -178.828125 212.65625 C-180 211 -180 211 -180 209 C-176.96932872 210.17725279 -173.99016645 211.44150742 -171.0234375 212.76953125 C-137.10675583 227.79702651 -100.239873 230.61822843 -65.125 217.25 C-62.73242187 216.20606226 -60.35740284 215.12111015 -58 214 C-57.33339355 213.68579102 -56.66678711 213.37158203 -55.97998047 213.04785156 C-33.28359195 202.19100074 -14.68618002 186.10877495 -1 165 C-0.37738281 164.0615625 0.24523437 163.123125 0.88671875 162.15625 C19.00033381 133.1744659 24.20944571 96.19266282 16.85571289 63.03344727 C12.36745318 44.51381641 4.58189926 27.60755929 -6.85083008 12.3894043 C-10 8.18618104 -10 8.18618104 -10 6 C-5.66913524 7.49758875 -2.12725088 9.77767401 1.5625 12.4375 C2.1702124 12.87271973 2.7779248 13.30793945 3.40405273 13.75634766 C8.75070849 17.6656855 13.58464029 21.9931529 18.37890625 26.5546875 C20.83058775 28.84194923 23.35424691 30.94272364 26 33 C19.44065674 23.44010609 12.71050032 14.29935369 4.21484375 6.32421875 C3 5 3 5 3 3 C2.01 2.67 1.02 2.34 0 2 C0 1.34 0 0.68 0 0 Z " fill="#F7B500" transform="translate(665,497)"/>
<path d="M0 0 C0.67932587 -0.00358521 1.35865173 -0.00717041 2.05856323 -0.01086426 C15.15768961 -0.04804566 27.04642731 0.93235761 39.0625 6.375 C40.40803955 6.97054687 40.40803955 6.97054687 41.78076172 7.578125 C54.32804755 13.25923853 65.31519187 20.19503466 75.6875 29.3125 C76.53957031 30.03179687 77.39164063 30.75109375 78.26953125 31.4921875 C105.67652915 55.15229936 119.36810085 89.02204585 122.6875 124.3125 C119.6875 123.3125 119.6875 123.3125 117.9609375 120.13671875 C117.32268048 118.76032415 116.6902305 117.38122718 116.0625 116 C110.44653462 104.24431402 102.6039288 94.77739103 93.6875 85.3125 C93.02621094 84.57515625 92.36492187 83.8378125 91.68359375 83.078125 C70.94105943 60.87928372 37.85701123 47.57061971 7.97753906 46.18701172 C-29.18509898 44.95813751 -64.23742048 55.67517498 -91.9765625 81.125 C-120.02825266 107.63153743 -133.13629059 142.11097151 -134.26708984 180.20019531 C-134.3252329 182.90478525 -134.33438568 185.6074294 -134.3125 188.3125 C-134.9725 188.3125 -135.6325 188.3125 -136.3125 188.3125 C-140.10844788 179.82053412 -142.99083137 171.42941246 -145.125 162.375 C-145.3314917 161.50012939 -145.5379834 160.62525879 -145.75073242 159.72387695 C-152.47419229 130.07118811 -148.36249722 100.32716791 -132.375 74.44140625 C-120.2779619 55.57934717 -105.54248235 39.35469482 -87.3125 26.3125 C-86.57 25.76335937 -85.8275 25.21421875 -85.0625 24.6484375 C-70.07736765 14.03396875 -52.06305705 7.3946014 -34.3125 3.3125 C-33.04921875 3.01085937 -31.7859375 2.70921875 -30.484375 2.3984375 C-20.38406529 0.23793689 -10.28737712 0.02186823 0 0 Z " fill="#DF1622" transform="translate(703.3125,230.6875)"/>
<path d="M0 0 C0.73987152 -0.00570007 1.47974304 -0.01140015 2.24203491 -0.01727295 C3.82084721 -0.02675083 5.39967955 -0.03326792 6.97851562 -0.03710938 C9.34022691 -0.04664009 11.70100001 -0.07755689 14.0625 -0.109375 C24.03066388 -0.17859061 33.08002205 0.82816775 42.7734375 3.203125 C43.7958252 3.44691895 44.81821289 3.69071289 45.87158203 3.94189453 C52.81123896 5.64703747 59.25171739 8.31505709 65.7734375 11.203125 C66.70285156 11.60660156 67.63226562 12.01007813 68.58984375 12.42578125 C104.90679523 28.49202863 134.7880588 57.93083121 149.45507812 95.09277344 C149.99508866 96.49769446 150.53013785 97.90453522 151.05957031 99.31347656 C151.66611337 100.91903171 152.30611305 102.51188412 152.953125 104.1015625 C162.90477782 130.40786956 161.82697363 158.4063977 151.14453125 184.1640625 C143.7943599 200.4558953 134.68302136 213.98832106 122.7734375 227.203125 C122.15726563 227.89277344 121.54109375 228.58242188 120.90625 229.29296875 C109.51675623 241.33410022 93.16413107 252.07762896 77.7734375 258.203125 C76.7834375 258.203125 75.7934375 258.203125 74.7734375 258.203125 C76.02540631 254.44721857 77.69353517 253.62621819 80.7734375 251.203125 C86.68562408 244.66420486 91.90439542 237.5421423 96.7734375 230.203125 C97.50820313 229.14158203 97.50820313 229.14158203 98.2578125 228.05859375 C115.70867478 201.27245837 121.03312322 164.79592607 115.32226562 133.71264648 C107.95832269 98.82636877 88.51071793 67.79933108 58.74658203 47.84423828 C36.06293586 33.27838454 11.29549002 25.75606619 -15.7265625 25.828125 C-16.42599976 25.82800415 -17.12543701 25.8278833 -17.84606934 25.82775879 C-33.31307151 25.86567459 -47.55747097 28.10969186 -62.109375 33.46875 C-64.2265625 34.203125 -64.2265625 34.203125 -66.2265625 34.203125 C-64.954797 30.38782851 -62.69890024 28.90867455 -59.6015625 26.578125 C-59.02253174 26.14008545 -58.44350098 25.7020459 -57.84692383 25.25073242 C-43.47912434 14.58765612 -27.82695809 6.78973971 -10.60546875 1.9296875 C-6.78835706 0.76387014 -4.24173637 0.02527017 0 0 Z " fill="#B15FB5" transform="translate(708.2265625,395.796875)"/>
<path d="M0 0 C0.66 0 1.32 0 2 0 C1.855625 0.79277344 1.71125 1.58554687 1.5625 2.40234375 C-4.0686314 37.79244042 2.61478626 74.13377507 23.4921875 103.59765625 C44.63024401 132.57095079 74.45545048 152.39101384 110.09667969 158.35058594 C145.19173734 163.73385149 181.60658913 156.47728096 210.57421875 135.44921875 C214.85649586 132.24664597 218.99553166 129.02447198 222.74609375 125.19921875 C225 123 225 123 227 123 C227 122.34 227 121.68 227 121 C227.66 121 228.32 121 229 121 C229.25394531 120.42507813 229.50789062 119.85015625 229.76953125 119.2578125 C231.13923449 116.74451577 232.72943428 114.96001301 234.6875 112.875 C238.41869823 108.79039138 241.52790232 104.49573994 244.5546875 99.87109375 C245.03164063 99.25363281 245.50859375 98.63617187 246 98 C246.66 98 247.32 98 248 98 C243.42509878 119.82881438 235.11372842 140.32742553 219 156 C218.27039063 156.71542969 217.54078125 157.43085937 216.7890625 158.16796875 C201.74129249 172.18085495 183.96720509 181.48579565 165 189 C164.31341309 189.27827637 163.62682617 189.55655273 162.91943359 189.84326172 C158.35109432 191.64189932 153.9568843 192.74028879 149.125 193.625 C144.41941048 194.37927652 144.41941048 194.37927652 140 196 C131.56255583 197.4257146 122.9050815 197.2030467 114.375 197.1875 C113.66113129 197.18623108 112.94726257 197.18496216 112.21176147 197.18365479 C75.99630543 197.06073384 42.7441927 185.62277277 15 162 C14.3296875 161.49726562 13.659375 160.99453125 12.96875 160.4765625 C-7.8777994 144.17985523 -17.02114953 112.04933433 -20.3984375 87.05078125 C-23.69213834 56.56179379 -16.29649367 27.3216514 -1 1 C-0.67 0.67 -0.34 0.34 0 0 Z " fill="#F5A500" transform="translate(342,440)"/>
<path d="M0 0 C4.33069772 1.49753099 7.87320066 3.77719939 11.5625 6.4375 C12.1716626 6.87489502 12.7808252 7.31229004 13.40844727 7.76293945 C19.71820629 12.38529051 25.36846515 17.58765663 31 23 C31.98226562 23.87011719 31.98226562 23.87011719 32.984375 24.7578125 C48.15671982 38.60779699 53.53156362 59.03259828 57.46386719 78.40893555 C57.80907443 80.07728001 58.17776728 81.74102398 58.57519531 83.39770508 C60.23567203 90.61989398 60.30696823 97.67401052 60.25 105.0625 C60.24178223 106.35091797 60.23356445 107.63933594 60.22509766 108.96679688 C59.73867175 150.53790577 43.2404364 189.00942018 13.71289062 218.33349609 C-11.24069279 242.61131257 -38.60557439 253.71693311 -73.296875 253.28125 C-82.87082031 253.04693905 -91.79887404 251.58489619 -101 249 C-101.99676758 248.72712158 -101.99676758 248.72712158 -103.01367188 248.44873047 C-122.80369 242.87344591 -141.25112231 232.90973435 -156.14453125 218.71484375 C-157.8970546 216.93537035 -157.8970546 216.93537035 -160 216 C-160 215.34 -160 214.68 -160 214 C-160.59296875 213.7421875 -161.1859375 213.484375 -161.796875 213.21875 C-164.17660965 211.90230105 -165.50978792 210.57419218 -167.25 208.5 C-167.77078125 207.8915625 -168.2915625 207.283125 -168.828125 206.65625 C-170 205 -170 205 -170 203 C-166.96932872 204.17725279 -163.99016645 205.44150742 -161.0234375 206.76953125 C-127.10675583 221.79702651 -90.239873 224.61822843 -55.125 211.25 C-52.73242187 210.20606226 -50.35740284 209.12111015 -48 208 C-47.33339355 207.68579102 -46.66678711 207.37158203 -45.97998047 207.04785156 C-23.28359195 196.19100074 -4.68618002 180.10877495 9 159 C9.62261719 158.0615625 10.24523437 157.123125 10.88671875 156.15625 C29.00033381 127.1744659 34.20944571 90.19266282 26.85571289 57.03344727 C22.36745318 38.51381641 14.58189926 21.60755929 3.14916992 6.3894043 C0 2.18618104 0 2.18618104 0 0 Z " fill="#FAD300" transform="translate(655,503)"/>
<path d="M0 0 C6.93 0 13.86 0 21 0 C23.67951431 6.02890719 26.1580669 11.93276801 28.34765625 18.12890625 C28.64562607 18.96284409 28.94359589 19.79678192 29.25059509 20.6559906 C30.19116322 23.29034285 31.12701053 25.92634052 32.0625 28.5625 C33.00255772 31.20186492 33.94359993 33.84087625 34.88511658 36.47972107 C35.46720558 38.11220514 36.04829773 39.74504515 36.62818909 41.37831116 C38.3686427 46.27195301 40.16399405 51.14136446 42 56 C42.25579834 55.22213135 42.51159668 54.4442627 42.77514648 53.64282227 C47.39917578 39.60798173 52.06626602 25.59510347 57.0625 11.6875 C57.44398193 10.62152588 57.82546387 9.55555176 58.21850586 8.45727539 C58.57050049 7.4852417 58.92249512 6.51320801 59.28515625 5.51171875 C59.59332275 4.66053467 59.90148926 3.80935059 60.21899414 2.93237305 C61 1 61 1 62 0 C68.93 0 75.86 0 83 0 C83 30.03 83 60.06 83 91 C77.06 91 71.12 91 65 91 C64.97502173 84.84765916 64.95701009 78.69534874 64.94506836 72.54296875 C64.94008266 70.45604945 64.93329169 68.36913356 64.92456055 66.28222656 C64.87780266 54.80728997 64.89506587 43.43301632 66 32 C65.63237549 33.05276123 65.26475098 34.10552246 64.88598633 35.19018555 C63.4995215 39.15883852 62.11036337 43.1265446 60.72045898 47.09399414 C60.12338892 48.79947285 59.52701462 50.50519532 58.93139648 52.21118164 C48.81340253 81.18659747 48.81340253 81.18659747 47 83 C44.98035801 83.07244053 42.95832876 83.08377188 40.9375 83.0625 C39.83277344 83.05347656 38.72804688 83.04445313 37.58984375 83.03515625 C36.73519531 83.02355469 35.88054688 83.01195312 35 83 C32.59672169 76.36160041 30.19402959 69.72298887 27.79174805 63.08422852 C26.97417534 60.82506485 26.15646764 58.56595002 25.33862305 56.30688477 C24.1641969 53.06279071 22.99025375 49.81852222 21.81640625 46.57421875 C21.44971329 45.56163498 21.08302032 44.54905121 20.70521545 43.50578308 C20.3649382 42.56503433 20.02466095 41.62428558 19.67407227 40.6550293 C19.3742897 39.82674118 19.07450714 38.99845306 18.76564026 38.14506531 C18.15611668 36.43738619 17.57338355 34.72015065 17 33 C17.0714624 34.05429199 17.1429248 35.10858398 17.21655273 36.19482422 C17.98175438 48.18272584 18.12054086 60.11601687 18.0625 72.125 C18.05746598 73.97005084 18.05290649 75.81510305 18.04882812 77.66015625 C18.038858 82.10683361 18.01925898 86.55331524 18 91 C12.06 91 6.12 91 0 91 C0 60.97 0 30.94 0 0 Z " fill="#000000" transform="translate(479,850)"/>
<path d="M0 0 C6.6 0 13.2 0 20 0 C22.24855417 4.04037077 24.49655262 8.08087026 26.73828125 12.125 C28.80068147 15.84393357 30.87008213 19.55885479 32.94503784 23.27079773 C34.34706247 25.78147925 35.74453506 28.29467927 37.14135742 30.80825806 C37.82671141 32.03939614 38.51382219 33.26955827 39.20288086 34.49862671 C44.23881475 43.48500997 48.75582577 52.61696939 53 62 C52.9285376 61.27796387 52.8570752 60.55592773 52.78344727 59.81201172 C51.73465585 47.59107285 51.88960456 35.38081004 51.9375 23.125 C51.94252593 20.87630308 51.9470869 18.62760507 51.95117188 16.37890625 C51.96208884 10.9192435 51.97929302 5.45963404 52 0 C58.27 0 64.54 0 71 0 C71 30.03 71 60.06 71 91 C64.4 91 57.8 91 51 91 C41.50762265 74.62099594 32.56138257 57.94128961 23.75 41.1875 C23.28424561 40.30441162 22.81849121 39.42132324 22.33862305 38.51147461 C21.91234619 37.69686768 21.48606934 36.88226074 21.046875 36.04296875 C20.67401367 35.33164795 20.30115234 34.62032715 19.91699219 33.88745117 C19 32 19 32 18 29 C18.0721875 30.04027344 18.144375 31.08054687 18.21875 32.15234375 C19.41914011 51.74587722 19.08380766 71.37969456 19 91 C12.73 91 6.46 91 0 91 C0 60.97 0 30.94 0 0 Z " fill="#000000" transform="translate(742,850)"/>
<path d="M0 0 C10.54918022 8.97467571 15.72130749 20.03749477 17.09375 33.78125 C18.02144573 48.60464352 15.75158353 63.53666908 5.90625 75.15625 C-2.65400051 84.00089422 -11.61366596 87.76525151 -23.78125 88.09375 C-35.00396267 87.89035329 -44.94201475 84.54702558 -53.13671875 76.625 C-64.82847617 63.11257491 -65.87517281 46.81553819 -64.90625 29.78125 C-63.38633332 18.56737652 -58.40827679 8.37234534 -49.90625 0.78125 C-35.12125951 -9.32182683 -14.93265993 -11.03718343 0 0 Z M-39.90625 17.78125 C-46.38146746 28.72589365 -46.93917985 43.20093758 -43.90625 55.46875 C-41.680598 61.43561704 -37.16429297 67.17524452 -31.41796875 70.0078125 C-26.05397445 71.65955569 -20.89360069 71.5217026 -15.71875 69.28125 C-9.24026486 65.56450952 -6.038646 60.16165126 -4.03125 53.09375 C-1.54208882 41.3146837 -2.01603774 29.04297955 -7.78125 18.28125 C-11.2358066 14.21706576 -14.71494525 11.22998621 -19.90625 9.78125 C-28.2809539 9.10587065 -34.40487141 11.09038415 -39.90625 17.78125 Z " fill="#000000" transform="translate(445.90625,855.21875)"/>
<path d="M0 0 C7.59 0 15.18 0 23 0 C29.84268658 20.29074114 36.53538911 40.62721825 43.08889771 61.01333618 C43.8641914 63.42492404 44.64046006 65.83619867 45.41769409 68.24716187 C46.51598856 71.65595982 47.61022686 75.06603115 48.703125 78.4765625 C49.0369368 79.51143295 49.3707486 80.54630341 49.7146759 81.61253357 C50.01669418 82.55846878 50.31871246 83.50440399 50.62988281 84.47900391 C50.89569153 85.30751862 51.16150024 86.13603333 51.43536377 86.98965454 C52 89 52 89 52 91 C45.4 91 38.8 91 32 91 C28.56914894 81.85106383 28.56914894 81.85106383 27.3125 77.25 C27.06113281 76.34765625 26.80976562 75.4453125 26.55078125 74.515625 C26 72 26 72 26 68 C16.43 68 6.86 68 -3 68 C-3.33 70.31 -3.66 72.62 -4 75 C-4.28385354 76.31640059 -4.59078448 77.62842977 -4.9375 78.9296875 C-5.11023438 79.579375 -5.28296875 80.2290625 -5.4609375 80.8984375 C-5.72777344 81.87683594 -5.72777344 81.87683594 -6 82.875 C-6.17789063 83.55046875 -6.35578125 84.2259375 -6.5390625 84.921875 C-7.87066449 89.87066449 -7.87066449 89.87066449 -9 91 C-10.41570123 91.08651611 -11.835595 91.10704904 -13.25390625 91.09765625 C-14.10791016 91.09443359 -14.96191406 91.09121094 -15.84179688 91.08789062 C-16.73962891 91.07951172 -17.63746094 91.07113281 -18.5625 91.0625 C-19.46419922 91.05798828 -20.36589844 91.05347656 -21.29492188 91.04882812 C-23.53001634 91.03700223 -25.76496493 91.01968245 -28 91 C-26.60554485 82.52599736 -24.06072972 74.51064757 -21.38671875 66.3671875 C-20.93021338 64.96266176 -20.47423545 63.5579645 -20.01875305 62.15310669 C-18.82383441 58.47194326 -17.62238386 54.79294639 -16.41931152 51.11444092 C-14.97291662 46.68827949 -13.53369897 42.25978073 -12.09399891 37.83143806 C-10.97046211 34.3757621 -9.84579211 30.92047397 -8.71696472 27.46652222 C-5.7356635 18.33361431 -2.85148009 9.17427188 0 0 Z M11 16 C9.71351246 20.78593134 8.43189609 25.57313026 7.15478516 30.36157227 C6.71960091 31.99051136 6.28308544 33.61909541 5.84521484 35.24731445 C5.21622374 37.58713285 4.59202407 39.92818441 3.96875 42.26953125 C3.77188599 42.99775589 3.57502197 43.72598053 3.37219238 44.47627258 C2.5962221 47.40674004 2 49.95379453 2 53 C8.27 53 14.54 53 21 53 C19.4705027 44.85813053 17.48454611 36.8844149 15.375 28.875 C14.88773438 27.01101563 14.88773438 27.01101563 14.390625 25.109375 C13.5962972 22.07223931 12.79936874 19.03581206 12 16 C11.67 16 11.34 16 11 16 Z " fill="#000000" transform="translate(681,850)"/>
<path d="M0 0 C49.79194631 0 49.79194631 0 60 9 C66.70958183 17.31091401 67.0141172 26.69551566 66 37 C65.11714891 40.36672746 63.86704633 43.07539596 62 46 C61.46375 46.886875 60.9275 47.77375 60.375 48.6875 C52.31757067 56.53289172 43.09289778 59.24610678 32.1015625 59.18017578 C31.07804688 59.16196777 30.05453125 59.14375977 29 59.125 C25.7 59.08375 22.4 59.0425 19 59 C19 69.56 19 80.12 19 91 C12.73 91 6.46 91 0 91 C0 60.97 0 30.94 0 0 Z M19 16 C19 25.24 19 34.48 19 44 C32.85130497 44.57771067 32.85130497 44.57771067 44.5 39 C47.84869068 34.53507909 47.46108003 29.33657447 47 24 C45.67304216 20.53516565 44.59831042 19.38703205 41.5 17.3828125 C36.90841879 15.56872796 33.00096414 15.67042059 28.125 15.8125 C25.11375 15.874375 22.1025 15.93625 19 16 Z " fill="#000000" transform="translate(583,850)"/>
<path d="M0 0 C1.245568 1.06443513 2.48166445 2.14075592 3.6875 3.25 C3.08415691 6.95503641 1.46275763 9.10968148 -0.875 12 C-1.51566406 12.79921875 -2.15632813 13.5984375 -2.81640625 14.421875 C-3.31011719 15.02515625 -3.80382812 15.6284375 -4.3125 16.25 C-7.61358385 15.59129749 -10.13415417 14.32420285 -13.0625 12.6875 C-19.19844144 9.58354135 -23.7121733 9.30614269 -30.375 11.25 C-35.80981423 13.53946899 -39.81619683 17.81353483 -42.16186523 23.20068359 C-44.1929262 28.72415659 -44.82496721 33.76496277 -44.75 39.625 C-44.74315186 40.45281982 -44.73630371 41.28063965 -44.72924805 42.13354492 C-44.5186472 50.1955345 -42.80421283 57.11160204 -38.0625 63.75 C-32.98340064 68.36736305 -27.43463826 69.8531616 -20.6171875 69.60546875 C-14.41561646 68.64895525 -9.47300515 65.90976576 -5.3125 61.25 C-4.6525 61.25 -3.9925 61.25 -3.3125 61.25 C-1.71071407 63.03104718 -0.17868074 64.87537278 1.3125 66.75 C2.12976563 67.7709375 2.94703125 68.791875 3.7890625 69.84375 C4.41554688 70.6378125 5.04203125 71.431875 5.6875 72.25 C2.57927427 79.21723061 -3.38353758 82.61915792 -10.19921875 85.48828125 C-19.95041334 89.00303716 -31.10077809 88.1796542 -40.66796875 84.50390625 C-50.40011186 79.88940413 -58.37625203 71.62521126 -62.5234375 61.68359375 C-67.1951955 47.27515199 -67.48929588 30.27496005 -61.3125 16.25 C-59.28274109 12.61251127 -57.00006168 9.42724453 -54.3125 6.25 C-53.7659375 5.59257813 -53.219375 4.93515625 -52.65625 4.2578125 C-39.32402455 -10.39505793 -15.52482641 -12.03418148 0 0 Z " fill="#000000" transform="translate(366.3125,855.75)"/>
<path d="M0 0 C6.6 0 13.2 0 20 0 C26.17197746 12.66879583 31.02852677 25.82485833 36 39 C40.22819492 31.05418901 43.5331649 22.83341804 46.75 14.4375 C47.72067219 11.91406847 48.69548238 9.39232675 49.671875 6.87109375 C50.0956543 5.76693115 50.51943359 4.66276855 50.95605469 3.52514648 C52 1 52 1 53 0 C54.4887186 -0.08669432 55.981445 -0.10703494 57.47265625 -0.09765625 C58.37177734 -0.09443359 59.27089844 -0.09121094 60.19726562 -0.08789062 C61.61555664 -0.07532227 61.61555664 -0.07532227 63.0625 -0.0625 C64.4865918 -0.05573242 64.4865918 -0.05573242 65.93945312 -0.04882812 C68.29303369 -0.03700109 70.64647581 -0.01968094 73 0 C71.0645345 6.32295358 68.63628024 12.17928571 65.69140625 18.09375 C65.28341293 18.92531616 64.87541962 19.75688232 64.45506287 20.61364746 C63.16287797 23.24509785 61.86309455 25.87269745 60.5625 28.5 C59.26689382 31.12797401 57.97294478 33.75674919 56.6806488 36.38635254 C55.88036039 38.01367297 55.07798714 39.63997053 54.27308655 41.26501465 C53.16894897 43.50387982 52.08396242 45.75131254 51 48 C50.62243561 48.75067245 50.24487122 49.50134491 49.85586548 50.27476501 C47.37861201 55.41717272 46.40064825 59.62817352 46.390625 65.31640625 C46.37408875 66.05833725 46.35755249 66.80026825 46.34051514 67.56468201 C46.29254879 69.89737641 46.27078143 72.22942183 46.25 74.5625 C46.22179697 76.15953698 46.19186359 77.75654438 46.16015625 79.35351562 C46.08359532 83.23596084 46.04260619 87.11644607 46 91 C39.73 91 33.46 91 27 91 C27.13664063 89.05867187 27.27328125 87.11734375 27.4140625 85.1171875 C28.2914406 61.58763531 21.32384421 44.92602999 10.33154297 24.421875 C7.90104743 19.85977486 5.62752295 15.23144227 3.41015625 10.5625 C2.8924894 9.48802612 2.8924894 9.48802612 2.36436462 8.3918457 C0.96718038 5.4193338 0 3.3255769 0 0 Z " fill="#000000" transform="translate(822,850)"/>
<path d="M0 0 C2.0625 0.4375 2.0625 0.4375 4 1 C4 2.65 4 4.3 4 6 C4.75925781 6 5.51851562 6 6.30078125 6 C10.20052083 6 14.10026042 6 18 6 C18.928125 5.773125 19.85625 5.54625 20.8125 5.3125 C24.77685248 4.92383799 26.57433153 6.09685085 30 8 C33.04586933 8.2851979 33.04586933 8.2851979 35.25 6.4375 C39.00688153 4.47367556 40.96266948 4.84647699 45 6 C48.24962741 8.4725426 49.71720978 10.09507129 50.9375 14 C51.03452247 18.65707876 50.00433879 20.93827042 46.8125 24.3125 C43.18121002 26.49127399 41.17845873 26.58645035 37 26 C33.5625 24 33.5625 24 31 22 C30.13375 22.66 29.2675 23.32 28.375 24 C24.67661178 26.19163746 23.19497546 26.69916258 19 26 C13.29230769 22.87692308 13.29230769 22.87692308 12 19 C11.67 20.98 11.34 22.96 11 25 C4.72307692 26.35384615 4.72307692 26.35384615 1.0625 24.5625 C0.0415625 23.7890625 0.0415625 23.7890625 -1 23 C-1.5775 23.928125 -2.155 24.85625 -2.75 25.8125 C-5.99447514 30.40883978 -5.99447514 30.40883978 -9 32 C-12.52211647 32.44963189 -14.51088212 32.22232631 -17.75 30.75 C-20.05981588 28.95347654 -20.97398542 27.70494754 -22 25 C-22.99 25.33 -23.98 25.66 -25 26 C-25.66 25.67 -26.32 25.34 -27 25 C-27.4140625 22.05859375 -27.4140625 22.05859375 -27.625 18.4375 C-27.69976563 17.23996094 -27.77453125 16.04242187 -27.8515625 14.80859375 C-27.90054688 13.88175781 -27.94953125 12.95492188 -28 12 C-29.32 11.67 -30.64 11.34 -32 11 C-32.33 15.62 -32.66 20.24 -33 25 C-33.99 25.33 -34.98 25.66 -36 26 C-38.1875 24.5625 -38.1875 24.5625 -40 23 C-40.53625 23.495 -41.0725 23.99 -41.625 24.5 C-44.62494296 26.39470082 -46.51044604 26.30343947 -50 26 C-50.66 25.67 -51.32 25.34 -52 25 C-52 26.65 -52 28.3 -52 30 C-53.875 30.625 -53.875 30.625 -56 31 C-58 29 -58 29 -58.22705078 26.75341797 C-58.21657715 25.84221191 -58.20610352 24.93100586 -58.1953125 23.9921875 C-58.18886719 23.00605469 -58.18242188 22.01992187 -58.17578125 21.00390625 C-58.15902344 19.97136719 -58.14226563 18.93882813 -58.125 17.875 C-58.11597656 16.83472656 -58.10695313 15.79445313 -58.09765625 14.72265625 C-58.07403747 12.14820908 -58.04110149 9.57421788 -58 7 C-56.57041894 6.65555896 -55.13907535 6.3184279 -53.70703125 5.984375 C-52.91014893 5.79584961 -52.1132666 5.60732422 -51.29223633 5.41308594 C-46.7033549 4.58611955 -42.96758489 5.71100872 -39 8 C-38.67 7.34 -38.34 6.68 -38 6 C-33.42902607 4.87418605 -29.3348999 4.34675111 -25.0625 6.4375 C-24.0415625 7.2109375 -24.0415625 7.2109375 -23 8 C-19.90757907 8.2470047 -19.90757907 8.2470047 -17.25 6.4375 C-13.28170837 4.68229409 -11.2020655 5.23598809 -7 6 C-4.18762459 5.64025105 -4.18762459 5.64025105 -2 5 C-1.855625 4.360625 -1.71125 3.72125 -1.5625 3.0625 C-1 1 -1 1 0 0 Z M-50.875 12.125 C-52.26066212 14.0140578 -52.26066212 14.0140578 -51.75 16.625 C-51.22254355 18.9312407 -51.22254355 18.9312407 -50 20 C-47.54190002 20.2500773 -47.54190002 20.2500773 -45 20 C-44.34 19.34 -43.68 18.68 -43 18 C-43.32198966 14.90073181 -43.32198966 14.90073181 -44 12 C-47.54966644 10.86559731 -47.54966644 10.86559731 -50.875 12.125 Z M-15.8125 12.1875 C-17.27508617 14.00808993 -17.27508617 14.00808993 -16.75 16.625 C-16.22254355 18.9312407 -16.22254355 18.9312407 -15 20 C-12.54190002 20.2500773 -12.54190002 20.2500773 -10 20 C-7.7508092 18.17296773 -7.7508092 18.17296773 -7.75 15.5 C-7.7508092 12.82703227 -7.7508092 12.82703227 -10 11 C-13.80350374 10.63464916 -13.80350374 10.63464916 -15.8125 12.1875 Z M18 13 C20.64 13 23.28 13 26 13 C25.67 12.34 25.34 11.68 25 11 C21.04542152 10.65176193 21.04542152 10.65176193 18 13 Z M38 11 C37.67 11.66 37.34 12.32 37 13 C39.31 13 41.62 13 44 13 C43.67 12.34 43.34 11.68 43 11 C41.35 11 39.7 11 38 11 Z M4 12 C4 14.64 4 17.28 4 20 C4.33 20 4.66 20 5 20 C5 17.36 5 14.72 5 12 C4.67 12 4.34 12 4 12 Z M18 18 C18.33 18.66 18.66 19.32 19 20 C20.98 20 22.96 20 25 20 C25.33 19.34 25.66 18.68 26 18 C23.36 18 20.72 18 18 18 Z M37 18 C37.33 18.66 37.66 19.32 38 20 C39.65 20 41.3 20 43 20 C43.33 19.34 43.66 18.68 44 18 C41.69 18 39.38 18 37 18 Z M-21 22 C-21 22.66 -21 23.32 -21 24 C-20.34 23.67 -19.68 23.34 -19 23 C-19.66 22.67 -20.32 22.34 -21 22 Z " fill="#000000" transform="translate(574,1130)"/>
<path d="M0 0 C3.3 0 6.6 0 10 0 C13.96 7.26 17.92 14.52 22 22 C22.33 14.74 22.66 7.48 23 0 C25.97 0 28.94 0 32 0 C32 13.86 32 27.72 32 42 C29.03 42 26.06 42 23 42 C22.49210938 41.10539063 21.98421875 40.21078125 21.4609375 39.2890625 C20.76568552 38.06767388 20.0703695 36.84632171 19.375 35.625 C19.04371094 35.04105469 18.71242188 34.45710937 18.37109375 33.85546875 C15.32823067 28.51610524 12.16468266 23.27447111 9 18 C9 25.92 9 33.84 9 42 C6.03 42 3.06 42 0 42 C0 28.14 0 14.28 0 0 Z M23 24 C24 27 24 27 24 27 Z " fill="#000000" transform="translate(596,981)"/>
<path d="M0 0 C4.26040721 2.98518328 7.12253373 7.40484628 8.20703125 12.46875 C9.02046782 19.89733989 8.53380496 25.89700084 4.91015625 32.51953125 C2.24603976 35.79258865 -0.48986336 38.31329106 -4.27734375 40.20703125 C-10.13210086 40.7003188 -15.46718656 41.06447413 -20.83984375 38.51953125 C-25.84099365 33.77485058 -28.94055975 29.70410227 -29.61328125 22.71875 C-29.75511403 8.83332053 -29.75511403 8.83332053 -25.27734375 3.20703125 C-17.96751817 -3.91536291 -8.84249943 -4.97500465 0 0 Z M-17.27734375 8.20703125 C-20.41670472 13.20364775 -20.68149402 18.20166097 -19.84375 23.93359375 C-19.01055378 27.27787098 -17.95154609 29.02544513 -15.27734375 31.20703125 C-11.87205379 32.45541506 -11.87205379 32.45541506 -8.27734375 32.20703125 C-4.91207161 30.33743561 -3.59016463 28.87736172 -1.96484375 25.39453125 C-0.55477668 18.85694754 -0.98801327 14.10514108 -4.27734375 8.20703125 C-9.12351993 4.45124471 -12.45881144 4.3522054 -17.27734375 8.20703125 Z " fill="#000000" transform="translate(506.27734375,982.79296875)"/>
<path d="M0 0 C3.50625 -0.0825 7.0125 -0.165 10.625 -0.25 C11.71893066 -0.28641602 12.81286133 -0.32283203 13.93994141 -0.36035156 C19.96999169 -0.42893772 23.44367639 -0.06893729 28 4 C31.115854 8.32199103 31.40056378 11.78184215 30.6640625 16.89453125 C29.66428335 20.06441927 27.36917081 21.75552239 25 24 C25.27892928 28.04107293 26.89400805 30.77229613 29.0625 34.125 C32 38.67294118 32 38.67294118 32 42 C28.7 42 25.4 42 22 42 C20.66141476 39.71125827 19.32898986 37.41930344 18 35.125 C17.6184375 34.47402344 17.236875 33.82304688 16.84375 33.15234375 C14 28.2265625 14 28.2265625 14 26 C12.35 26 10.7 26 9 26 C9 31.28 9 36.56 9 42 C6.03 42 3.06 42 0 42 C0 28.14 0 14.28 0 0 Z M9 7 C9 10.96 9 14.92 9 19 C11.413125 18.814375 11.413125 18.814375 13.875 18.625 C14.77992188 18.55539062 15.68484375 18.48578125 16.6171875 18.4140625 C19.17941903 18.20431868 19.17941903 18.20431868 21 16 C21.33333333 13 21.33333333 13 21 10 C18.50494038 7.50494038 17.32671112 7.64051624 13.875 7.375 C12.26625 7.25125 10.6575 7.1275 9 7 Z " fill="#000000" transform="translate(725,981)"/>
<path d="M0 0 C3.3 0 6.6 0 10 0 C10 5.28 10 10.56 10 16 C14.62 16 19.24 16 24 16 C24 10.72 24 5.44 24 0 C26.97 0 29.94 0 33 0 C33 13.86 33 27.72 33 42 C30.03 42 27.06 42 24 42 C24 36.06 24 30.12 24 24 C19.38 24 14.76 24 10 24 C10 29.94 10 35.88 10 42 C6.7 42 3.4 42 0 42 C0 28.14 0 14.28 0 0 Z " fill="#000000" transform="translate(649,981)"/>
<path d="M0 0 C2.53905844 1.77734091 3.50147198 2.85426876 4.5 5.75 C2.85 7.4 1.2 9.05 -0.5 10.75 C-1.5209375 9.9765625 -1.5209375 9.9765625 -2.5625 9.1875 C-6.40525323 7.30700374 -8.41132242 7.63490612 -12.5 8.75 C-14.8181362 10.64111111 -16.16914015 12.08828031 -17.5 14.75 C-18.23126697 22.67123723 -18.23126697 22.67123723 -15.625 29.9375 C-11.90627778 33.10935131 -9.33297516 32.92574455 -4.5 32.75 C-3.20366379 31.68354885 -3.20366379 31.68354885 -3.4375 29.1875 C-3.458125 28.383125 -3.47875 27.57875 -3.5 26.75 C-5.81 26.42 -8.12 26.09 -10.5 25.75 C-10.5 23.11 -10.5 20.47 -10.5 17.75 C-5.22 17.75 0.06 17.75 5.5 17.75 C5.5 24.35 5.5 30.95 5.5 37.75 C-2.33028024 42.22444585 -6.76602097 42.89841247 -15.5 41.75 C-20.32700019 40.07426722 -23.32042438 37.48062762 -25.9375 33.125 C-29.08461797 26.32722517 -29.63246267 19.51067111 -27.88671875 12.171875 C-25.60991042 6.27423933 -21.93391629 2.87422292 -16.5 -0.25 C-10.99615634 -2.08461455 -5.44565321 -1.94487615 0 0 Z " fill="#000000" transform="translate(547.5,981.25)"/>
<path d="M0 0 C0.66 0.66 1.32 1.32 2 2 C2.680625 1.484375 3.36125 0.96875 4.0625 0.4375 C7.83030287 -1.40631843 9.95681935 -0.82361087 14 0 C16.55692729 0 18.85132549 -0.22227767 21.375 -0.5625 C24.87373292 -0.97578075 27.5527622 -0.76605284 31 0 C31.804375 -0.20625 32.60875 -0.4125 33.4375 -0.625 C36 -1 36 -1 42 2 C42 7.61 42 13.22 42 19 C40.68 19.33 39.36 19.66 38 20 C36 18 36 18 35.8046875 14.9609375 C35.82789063 13.77757812 35.85109375 12.59421875 35.875 11.375 C35.89304687 10.18648437 35.91109375 8.99796875 35.9296875 7.7734375 C35.95289063 6.85820313 35.97609375 5.94296875 36 5 C35.01 5.33 34.02 5.66 33 6 C32.67 10.29 32.34 14.58 32 19 C30.68 19.33 29.36 19.66 28 20 C26.12175109 18.12175109 26.60897603 14.96064724 26.4375 12.4375 C26.35371094 11.23996094 26.26992188 10.04242187 26.18359375 8.80859375 C26.12300781 7.88175781 26.06242188 6.95492188 26 6 C25.34 6 24.68 6 24 6 C23.67 10.29 23.34 14.58 23 19 C21.68 19.33 20.36 19.66 19 20 C18.01 19.34 17.02 18.68 16 18 C15.01 18.66 14.02 19.32 13 20 C9.62947899 20.29308878 7.44800102 20.18753531 4.3125 18.875 C3.549375 18.58625 2.78625 18.2975 2 18 C1.01 18.66 0.02 19.32 -1 20 C-5.21178243 20.46797583 -7.28599114 20.46565795 -10.875 18.125 C-13.8135712 15.1864288 -13.97033295 14.45242245 -14.25 10.1875 C-14.19430139 6.35125857 -13.49416756 4.02863204 -11 1 C-7.44886997 -1.79017359 -4.22227871 -0.93828416 0 0 Z M-7 5 C-8.39287806 6.17036305 -8.39287806 6.17036305 -8.1875 9.4375 C-8.39564928 13.05032721 -8.39564928 13.05032721 -6 15 C-3.89179203 14.6814823 -3.89179203 14.6814823 -2 14 C-2 13.01 -2 12.02 -2 11 C-1.34 11 -0.68 11 0 11 C0 10.01 0 9.02 0 8 C-0.66 8 -1.32 8 -2 8 C-2.33 7.01 -2.66 6.02 -3 5 C-4.32 5 -5.64 5 -7 5 Z M7 5 C5.63376326 7.73247348 5.871574 9.98198902 6 13 C7.0595877 14.28322547 7.0595877 14.28322547 9.5 14.125 C11.9404123 14.28322547 11.9404123 14.28322547 13 13 C13.16666667 9.5 13.16666667 9.5 13 6 C11.93354885 4.70366379 11.93354885 4.70366379 9.4375 4.9375 C8.633125 4.958125 7.82875 4.97875 7 5 Z " fill="#000000" transform="translate(642,1136)"/>
<path d="M0 0 C3.63 0 7.26 0 11 0 C14.32484183 8.00707321 17.10228085 16.12136082 19.75 24.375 C20.16518894 25.6445887 20.58055256 26.9141203 20.99609375 28.18359375 C21.57810547 29.99150391 21.57810547 29.99150391 22.171875 31.8359375 C22.5234668 32.92438965 22.87505859 34.0128418 23.23730469 35.13427734 C24 38 24 38 24 42 C20.7 42 17.4 42 14 42 C12.80712589 38.12315913 12 35.08378077 12 31 C7.71 31 3.42 31 -1 31 C-1.144375 32.258125 -1.28875 33.51625 -1.4375 34.8125 C-1.73748686 37.42667123 -2.15813297 39.47439892 -3 42 C-6.3 42 -9.6 42 -13 42 C-10.83753477 32.54798814 -7.92711044 23.41828256 -4.8125 14.25 C-4.34397522 12.85951841 -3.87587373 11.46889412 -3.40820312 10.078125 C-2.27699426 6.71709624 -1.14012633 3.35801584 0 0 Z M5 9 C4.49564306 10.9363704 3.99666126 12.87414146 3.5 14.8125 C3.2215625 15.89144531 2.943125 16.97039063 2.65625 18.08203125 C1.89029052 20.98933975 1.89029052 20.98933975 2 24 C4.31 24 6.62 24 9 24 C8.35812082 18.86496656 7.31727753 14.0056546 6 9 C5.67 9 5.34 9 5 9 Z " fill="#000000" transform="translate(568,981)"/>
<path d="M0 0 C8.91 0 17.82 0 27 0 C27 2.64 27 5.28 27 8 C21.39 8 15.78 8 10 8 C10 10.64 10 13.28 10 16 C14.62 16 19.24 16 24 16 C24 18.64 24 21.28 24 24 C19.38 24 14.76 24 10 24 C10 27.3 10 30.6 10 34 C15.61 34 21.22 34 27 34 C27 36.64 27 39.28 27 42 C18.09 42 9.18 42 0 42 C0 28.14 0 14.28 0 0 Z " fill="#000000" transform="translate(762,981)"/>
<path d="M0 0 C8.58 0 17.16 0 26 0 C26 2.64 26 5.28 26 8 C20.72 8 15.44 8 10 8 C10 10.64 10 13.28 10 16 C14.62 16 19.24 16 24 16 C24 18.64 24 21.28 24 24 C19.38 24 14.76 24 10 24 C10 27.3 10 30.6 10 34 C15.61 34 21.22 34 27 34 C27 36.64 27 39.28 27 42 C18.09 42 9.18 42 0 42 C0 28.14 0 14.28 0 0 Z " fill="#000000" transform="translate(691,981)"/>
<path d="M0 0 C0 4 0 4 -1.1875 5.8125 C-3 7 -3 7 -5.25 6.75 C-6.1575 6.5025 -7.065 6.255 -8 6 C-12.48102323 5.27041631 -12.48102323 5.27041631 -17 5 C-17.03283796 7.39956736 -17.03283796 7.39956736 -16 10 C-13.69649466 11.40653884 -11.64839513 12.46617672 -9.1875 13.5 C-4.36617529 15.56275714 -0.84417259 17.41149497 2 22 C2.94204234 25.73568512 2.85237798 29.40979287 1.01171875 32.84375 C-2.1125597 36.79020699 -4.97372875 38.74230821 -9.91796875 39.37109375 C-17.63282254 39.52778732 -22.70602667 38.55377916 -29 34 C-27.79618552 31.50638429 -26.54571278 29.31856917 -25 27 C-22.83264747 27.46443268 -21.1100283 27.93550065 -19.1875 29.0625 C-16.10171663 30.38497859 -13.31522068 30.12750849 -10 30 C-9.67 28.35 -9.34 26.7 -9 25 C-10.44632812 24.32904297 -10.44632812 24.32904297 -11.921875 23.64453125 C-13.19822973 23.03450877 -14.47425417 22.42379487 -15.75 21.8125 C-16.38421875 21.52052734 -17.0184375 21.22855469 -17.671875 20.92773438 C-21.80649235 18.9250291 -24.50393472 17.0060307 -27 13 C-27.94078766 9.26929033 -27.83141244 5.60830604 -26.046875 2.15625 C-18.95938164 -6.9946908 -8.87076967 -5.16117508 0 0 Z " fill="#000000" transform="translate(439,984)"/>
<path d="M0 0 C3.3 0 6.6 0 10 0 C10 10.89 10 21.78 10 33 C15.28 33.33 20.56 33.66 26 34 C26 36.64 26 39.28 26 42 C17.42 42 8.84 42 0 42 C0 28.14 0 14.28 0 0 Z " fill="#000000" transform="translate(447,981)"/>
<path d="M0 0 C1.65 0.33 3.3 0.66 5 1 C4.67 2.32 4.34 3.64 4 5 C2.35 4.67 0.7 4.34 -1 4 C-0.67 2.68 -0.34 1.36 0 0 Z " fill="#000000" transform="translate(624,1151)"/>
</svg>
